<svg width="24" height="24" viewBox="0 0 24 24" fill="none" xmlns="http://www.w3.org/2000/svg">
<path d="M5.53845 16C7.13673 16 8.0863 15.06 8.0863 13.9557C8.0863 12.9883 7.5316 12.4589 6.69485 12.1213L5.78289 11.7562C5.19059 11.528 4.6923 11.3455 4.6923 10.8618C4.6923 10.4237 5.07777 10.1591 5.68888 10.1591C6.26238 10.1591 6.72306 10.3598 7.17434 10.7158L7.87006 9.86701C7.30596 9.3103 6.49742 9 5.68888 9C4.28803 9 3.28205 9.84876 3.28205 10.9531C3.28205 11.9296 3.99658 12.4863 4.6923 12.7601L5.62306 13.1434C6.24357 13.399 6.66665 13.5632 6.66665 14.0652C6.66665 14.5306 6.29058 14.8318 5.56665 14.8318C4.95555 14.8318 4.28803 14.5398 3.79914 14.0926L3 15.0235C3.67692 15.6532 4.59828 16 5.53845 16Z" fill="white"/>
<path d="M11.9976 16C13.8403 16 15.1002 14.6675 15.1002 12.4681C15.1002 10.2777 13.8403 9 11.9976 9C10.1455 9 8.88566 10.2686 8.88566 12.4681C8.88566 14.6675 10.1455 16 11.9976 16ZM11.9976 14.8318C10.954 14.8318 10.3053 13.91 10.3053 12.4681C10.3053 11.0261 10.954 10.1591 11.9976 10.1591C13.0318 10.1591 13.6899 11.0261 13.6899 12.4681C13.6899 13.91 13.0318 14.8318 11.9976 14.8318Z" fill="white"/>
<path d="M18.4521 16C20.0504 16 21 15.06 21 13.9557C21 12.9883 20.4453 12.4589 19.6086 12.1213L18.6966 11.7562C18.1043 11.528 17.606 11.3455 17.606 10.8618C17.606 10.4237 17.9915 10.1591 18.6026 10.1591C19.1761 10.1591 19.6368 10.3598 20.088 10.7158L20.7838 9.86701C20.2197 9.3103 19.4111 9 18.6026 9C17.2017 9 16.1957 9.84876 16.1957 10.9531C16.1957 11.9296 16.9103 12.4863 17.606 12.7601L18.5368 13.1434C19.1573 13.399 19.5803 13.5632 19.5803 14.0652C19.5803 14.5306 19.2043 14.8318 18.4804 14.8318C17.8692 14.8318 17.2017 14.5398 16.7128 14.0926L15.9137 15.0235C16.5906 15.6532 17.512 16 18.4521 16Z" fill="white"/>
<circle cx="12" cy="12" r="11.25" stroke="white" stroke-width="1.5"/>
</svg>
